# xmcd
#
# Track frame offsets: 
#        183
#        16615
#        33160
#        56568
#        71743
#        88028
#        111108
#        129650
#        145718
#        161413
#        181428
#        198235
#        215215
#        228423
#        247108
#        265548
#        284845
#
# Disc length: 3946 seconds
#
# Revision: 0
# Processed by: cddbd v1.5.1PL0 Copyright (c) Steve Scherf et al.
# Submitted via: ExactAudioCopy v0.95a5
#
DISCID=f70f6811
DTITLE=전영록 - 베스트콜렉션
DYEAR=1900
DGENRE=1988
TTITLE0=저녁놀
TTITLE1=추억
TTITLE2=뜨락에 앉아
TTITLE3=이제 자야하나봐
TTITLE4=하얀밤에
TTITLE5=어제
TTITLE6=사랑합니다
TTITLE7=사랑해요 그 한마디
TTITLE8=나 그대에게
TTITLE9=이젠 가슴아픈말 하지말아요
TTITLE10=아직도 못다한 이야기
TTITLE11=아무런 소리도 들리지 않아
TTITLE12=사랑한다는 말 뭐가 어려워
TTITLE13=산체스의 눈물
TTITLE14=그대 떠나간 뒤에
TTITLE15=보람이에게
TTITLE16=어허야 둥기둥기
EXTD=
EXTT0=
EXTT1=
EXTT2=
EXTT3=
EXTT4=
EXTT5=
EXTT6=
EXTT7=
EXTT8=
EXTT9=
EXTT10=
EXTT11=
EXTT12=
EXTT13=
EXTT14=
EXTT15=
EXTT16=
PLAYORDER=
